<svg width="9" height="11" viewBox="0 0 9 11" fill="none" xmlns="http://www.w3.org/2000/svg">
<g clip-path="url(#clip0_1051224_132)">
<path d="M0.875 10.2656H2.28906C2.85156 10.2656 3.15625 9.96094 3.15625 9.39062V0.875C3.15625 0.273438 2.85156 0 2.28906 0H0.875C0.304688 0 0 0.304688 0 0.875V9.39062C0 9.96094 0.304688 10.2656 0.875 10.2656ZM5.44531 10.2656H6.85938C7.42188 10.2656 7.72656 9.96094 7.72656 9.39062V0.875C7.72656 0.273438 7.42188 0 6.85938 0H5.44531C4.875 0 4.57031 0.304688 4.57031 0.875V9.39062C4.57031 9.96094 4.875 10.2656 5.44531 10.2656Z" fill="white" fill-opacity="0.85"/>
</g>
<defs>
<clipPath id="clip0_1051224_132">
<rect width="8.13281" height="10.2734" fill="white"/>
</clipPath>
</defs>
</svg>
